<mxfile host="65bd71144e">
    <diagram id="AOqtRD31YLhO2lExX9EW" name="Page-1">
        <mxGraphModel dx="521" dy="453" grid="1" gridSize="10" guides="1" tooltips="1" connect="1" arrows="1" fold="1" page="1" pageScale="1" pageWidth="850" pageHeight="1100" math="0" shadow="0">
            <root>
                <mxCell id="0"/>
                <mxCell id="1" parent="0"/>
                <mxCell id="2" value="" style="whiteSpace=wrap;html=1;aspect=fixed;strokeColor=#000000;" vertex="1" parent="1">
                    <mxGeometry x="140" y="380" width="80" height="80" as="geometry"/>
                </mxCell>
                <mxCell id="3" value="Src" style="text;html=1;align=center;verticalAlign=middle;whiteSpace=wrap;rounded=0;" vertex="1" parent="1">
                    <mxGeometry x="150" y="405" width="60" height="30" as="geometry"/>
                </mxCell>
                <mxCell id="5" value="" style="endArrow=classic;html=1;exitX=1.02;exitY=0.561;exitDx=0;exitDy=0;exitPerimeter=0;entryX=0.013;entryY=0.561;entryDx=0;entryDy=0;entryPerimeter=0;" edge="1" parent="1" source="2" target="6">
                    <mxGeometry width="50" height="50" relative="1" as="geometry">
                        <mxPoint x="230" y="422.5" as="sourcePoint"/>
                        <mxPoint x="280" y="423" as="targetPoint"/>
                    </mxGeometry>
                </mxCell>
                <mxCell id="6" value="" style="whiteSpace=wrap;html=1;aspect=fixed;strokeColor=#000000;" vertex="1" parent="1">
                    <mxGeometry x="290" y="380" width="80" height="80" as="geometry"/>
                </mxCell>
                <mxCell id="7" value="Components" style="text;html=1;align=center;verticalAlign=middle;whiteSpace=wrap;rounded=0;" vertex="1" parent="1">
                    <mxGeometry x="300" y="405" width="60" height="30" as="geometry"/>
                </mxCell>
                <mxCell id="8" value="" style="endArrow=classic;html=1;exitX=0.75;exitY=1;exitDx=0;exitDy=0;" edge="1" parent="1" source="6">
                    <mxGeometry width="50" height="50" relative="1" as="geometry">
                        <mxPoint x="300" y="500" as="sourcePoint"/>
                        <mxPoint x="350" y="500.5" as="targetPoint"/>
                        <Array as="points">
                            <mxPoint x="350" y="480"/>
                        </Array>
                    </mxGeometry>
                </mxCell>
            </root>
        </mxGraphModel>
    </diagram>
</mxfile>